{"title":"La.battaglia.di.Algeri.1966.480p.Bluray.XVID.AC3.bm11","uid":7254897,"size":2165256811,"categoryP":"video","categoryS":"movies","magnet":"?xt=urn:btih:9ef65de778ad37afdd8ff46b28319c8ff40db2b1&amp;dn=La.battaglia.di.Algeri.1966.480p.Bluray.XVID.AC3.bm11&amp;tr=udp%3A%2F%2Ftracker.openbittorrent.com%3A80&amp;tr=udp%3A%2F%2Fopen.demonii.com%3A1337&amp;tr=udp%3A%2F%2Ftracker.coppersurfer.tk%3A6969&amp;tr=udp%3A%2F%2Fexodus.desync.com%3A6969","seeders":6,"leechers":0,"uploader":"rpessoa","files":5,"time":1336558664,"description":"La battaglia di Algeri (Gillo Pontecorvo, 1966)  &lt;a href=&quot;\nhttp://www.imdb.com/title/tt0058946/&quot; rel=&quot;nofollow&quot; target=&quot;_NEW&quot;&gt;\nhttp://www.imdb.com/title/tt0058946/&lt;/a&gt;\n\n----------------------\n\nAn account of the bloodiest revolution in modern history.\n\n----------------------\n\nLANGUAGE: French, Italian, English, Arabic\nSUBTITLES: English, Portuguese, Spanish, Romanian\n\n----------------------\n\nGeneral\nComplete name                            : La.battaglia.di.Algeri.1966.480p.Bluray.XVID.AC3.bm11.avi\nFormat                                   : AVI\nFormat/Info                              : Audio Video Interleave\nFormat profile                           : OpenDML\nFile size                                : 2.02 GiB\nDuration                                 : 2h 1mn\nOverall bit rate                         : 2 373 Kbps\nWriting application                      : VirtualDubMod 1.5.10.2 (build 2540/release)\nWriting library                          : VirtualDubMod build 2540/release\n\nVideo\nID                                       : 0\nFormat                                   : MPEG-4 Visual\nFormat profile                           : Advanced Simple@L5\nFormat settings, BVOP                    : 2\nFormat settings, QPel                    : No\nFormat settings, GMC                     : No warppoints\nFormat settings, Matrix                  : Custom\nCodec ID                                 : XVID\nCodec ID/Hint                            : XviD\nDuration                                 : 2h 1mn\nBit rate                                 : 2 168 Kbps\nWidth                                    : 720 pixels\nHeight                                   : 384 pixels\nDisplay aspect ratio                     : 1.875\nFrame rate                               : 23.976 fps\nColor space                              : YUV\nChroma subsampling                       : 4:2:0\nBit depth                                : 8 bits\nScan type                                : Progressive\nCompression mode                         : Lossy\nBits/(Pixel*Frame)                       : 0.327\nStream size                              : 1.84 GiB (91%)\nWriting library                          : XviD 1.2.1 (UTC 2008-12-04)\n\nAudio\nID                                       : 1\nFormat                                   : AC-3\nFormat/Info                              : Audio Coding 3\nMode extension                           : CM (complete main)\nCodec ID                                 : 2000\nDuration                                 : 2h 1mn\nBit rate mode                            : Constant\nBit rate                                 : 192 Kbps\nChannel(s)                               : 2 channels\nChannel positions                        : Front: L R\nSampling rate                            : 48.0 KHz\nBit depth                                : 16 bits\nCompression mode                         : Lossy\nStream size                              : 167 MiB (8%)\nAlignment                                : Split accross interleaves\nInterleave, duration                     : 42 ms (1.00 video frame)\nInterleave, preload duration             : 500 ms","torrent":{"xt":"urn:btih:9ef65de778ad37afdd8ff46b28319c8ff40db2b1","amp;dn":"La.battaglia.di.Algeri.1966.480p.Bluray.XVID.AC3.bm11","amp;tr":["udp%3A%2F%2Ftracker.openbittorrent.com%3A80","udp%3A%2F%2Fopen.demonii.com%3A1337","udp%3A%2F%2Ftracker.coppersurfer.tk%3A6969","udp%3A%2F%2Fexodus.desync.com%3A6969"],"infoHash":"9ef65de778ad37afdd8ff46b28319c8ff40db2b1","infoHashBuffer":{"type":"Buffer","data":[158,246,93,231,120,173,55,175,221,143,244,107,40,49,156,143,244,13,178,177]},"announce":[],"urlList":[]}}